<svg width="45.000031" height="45.000050" viewBox="0 0 45 45" fill="none" xmlns="http://www.w3.org/2000/svg" xmlns:xlink="http://www.w3.org/1999/xlink">
	<desc>
			Created with Pixso.
	</desc>
	<defs/>
	<rect id="edit" width="45.000000" height="45.000000" fill="#FFFFFF" fill-opacity="1.000000"/>
	<path id="path" d="M34.98 1.74L12.12 24.6C10.28 26.43 9.36 28.64 9.37 31.23L9.37 33.75C9.37 35 10 35.62 11.25 35.62L13.76 35.62C16.35 35.63 18.56 34.71 20.39 32.88L43.25 10.02C44.39 8.87 44.96 7.49 44.96 5.88C44.96 4.26 44.39 2.88 43.25 1.74C42.09 0.63 40.71 0.08 39.11 0.08C37.51 0.08 36.13 0.63 34.98 1.74ZM40.6 7.36L17.74 30.22C16.64 31.32 15.31 31.87 13.76 31.87L13.12 31.87L13.12 31.23C13.12 29.68 13.67 28.35 14.77 27.25L37.63 4.39C38.62 3.44 39.61 3.44 40.6 4.39C41.01 4.8 41.21 5.3 41.21 5.88C41.21 6.46 41.01 6.95 40.6 7.36Z" fill="#8ED9BC" fill-opacity="1.000000" fill-rule="nonzero"/>
	<path id="path" d="M43.12 16.83C41.87 16.83 41.25 17.46 41.25 18.71L41.25 28.12L33.75 28.12C32.19 28.12 30.87 28.67 29.77 29.77C28.67 30.87 28.12 32.19 28.12 33.75L28.12 41.25L9.37 41.25C7.82 41.25 6.49 40.7 5.39 39.6C4.29 38.5 3.75 37.17 3.75 35.62L3.75 9.37C3.75 7.82 4.29 6.49 5.39 5.39C6.49 4.29 7.82 3.75 9.37 3.75L26.32 3.75C27.57 3.75 28.2 3.12 28.2 1.87C28.2 0.62 27.57 0 26.32 0L9.37 0C8.13 0 6.93 0.24 5.78 0.71C4.64 1.19 3.62 1.87 2.74 2.74C1.87 3.62 1.19 4.64 0.71 5.78C0.24 6.93 0 8.13 0 9.37L0 35.62C0 36.86 0.24 38.06 0.71 39.21C1.19 40.35 1.87 41.37 2.74 42.25C3.62 43.12 4.64 43.8 5.78 44.28C6.93 44.75 8.13 44.99 9.37 45L30.64 45C33.23 45 35.44 44.09 37.27 42.25L42.25 37.27C44.09 35.44 45 33.23 45 30.64L45 18.71C45 17.46 44.37 16.83 43.12 16.83ZM34.62 39.6C33.85 40.37 32.93 40.87 31.87 41.1L31.87 33.75C31.87 32.5 32.5 31.87 33.75 31.87L41.1 31.87C40.87 32.93 40.37 33.84 39.6 34.62L34.62 39.6Z" fill="#8ED9BC" fill-opacity="1.000000" fill-rule="nonzero"/>
</svg>
