<svg width="50.000000" height="50.000000" viewBox="0 0 50 50" fill="none" xmlns="http://www.w3.org/2000/svg" xmlns:xlink="http://www.w3.org/1999/xlink">
	<desc>
			Created with Pixso.
	</desc>
	<defs>
		<clipPath id="clip6_34">
			<rect id="trash" width="50.000000" height="50.000000" fill="white" fill-opacity="0"/>
		</clipPath>
	</defs>
	<g clip-path="url(#clip6_34)">
		<rect id="trash" width="50.000000" height="50.000000" fill="#FFFFFF" fill-opacity="1.000000"/>
		<mask id="mask6_38" mask-type="alpha" maskUnits="userSpaceOnUse" x="3.000000" y="3.000000" width="50.000004" height="50.000000">
			<rect id="trash" x="3.000000" y="3.000000" width="50.000004" height="50.000000" fill="#000000" fill-opacity="1.000000"/>
		</mask>
		<g mask="url(#mask6_38)">
			<path id="path" d="M43.25 10.33L37.3 10.33C36.84 8.19 35.73 6.44 33.96 5.06C32.21 3.68 30.18 3 27.91 3L24.07 3C21.8 3 19.78 3.68 18.02 5.06C16.25 6.44 15.14 8.19 14.68 10.33L8.75 10.33C7.47 10.33 6.82 10.93 6.82 12.16C6.82 13.38 7.47 14 8.75 14L10.66 14L10.66 37.83C10.66 39.04 10.91 40.21 11.39 41.33C11.87 42.45 12.57 43.44 13.46 44.3C14.37 45.16 15.41 45.82 16.57 46.29C17.75 46.76 18.97 46.99 20.25 47L31.75 47C33.01 46.99 34.23 46.76 35.41 46.29C36.58 45.82 37.61 45.16 38.52 44.3C39.41 43.44 40.11 42.45 40.6 41.33C41.07 40.21 41.32 39.04 41.32 37.83L41.32 14L43.25 14C44.51 14 45.16 13.38 45.16 12.16C45.16 10.93 44.51 10.33 43.25 10.33ZM24.07 6.66L27.91 6.66C30.61 6.66 32.43 7.88 33.33 10.33L18.65 10.33C19.56 7.88 21.37 6.66 24.07 6.66ZM37.5 37.83C37.5 39.34 36.92 40.64 35.8 41.72C34.68 42.79 33.33 43.33 31.75 43.33L20.25 43.33C18.65 43.33 17.3 42.79 16.18 41.72C15.06 40.64 14.5 39.34 14.5 37.83L14.5 14L37.5 14L37.5 37.83Z" fill="#8ED9BC" fill-opacity="1.000000" fill-rule="nonzero"/>
			<path id="path" d="M22.16 36C23.44 36 24.07 35.38 24.07 34.16L24.07 23.16C24.07 21.93 23.44 21.33 22.16 21.33C20.88 21.33 20.25 21.93 20.25 23.16L20.25 34.16C20.25 35.38 20.88 36 22.16 36Z" fill="#8ED9BC" fill-opacity="1.000000" fill-rule="nonzero"/>
			<path id="path" d="M29.82 36C31.1 36 31.75 35.38 31.75 34.16L31.75 23.16C31.75 21.93 31.1 21.33 29.82 21.33C28.54 21.33 27.91 21.93 27.91 23.16L27.91 34.16C27.91 35.38 28.54 36 29.82 36Z" fill="#8ED9BC" fill-opacity="1.000000" fill-rule="nonzero"/>
		</g>
	</g>
</svg>
